<svg width="64" height="64" viewBox="0 0 64 64" fill="none" xmlns="http://www.w3.org/2000/svg">
<path fill-rule="evenodd" clip-rule="evenodd" d="M29.5046 18C24.534 18 20.5046 22.0294 20.5046 27V28.6166H20.0008C17.5653 28.6166 15.6951 30.7747 16.0414 33.1854L17.7808 45.2927C18.0637 47.2619 19.7508 48.7239 21.7402 48.7239H42.2507C44.2401 48.7239 45.9271 47.2619 46.21 45.2927L47.9495 33.1854C48.2958 30.7747 46.4256 28.6166 43.9901 28.6166H43.4862V27C43.4862 22.0294 39.4567 18 34.4862 18H29.5046ZM41.4862 28.6166V27C41.4862 23.134 38.3522 20 34.4862 20H29.5046C25.6386 20 22.5046 23.134 22.5046 27V28.6166H41.4862ZM20.0008 30.6166H43.9901C45.2078 30.6166 46.143 31.6956 45.9698 32.901L44.2304 45.0083C44.0889 45.9929 43.2454 46.7239 42.2507 46.7239H21.7402C20.7455 46.7239 19.902 45.9929 19.7605 45.0083L18.0211 32.901C17.8479 31.6956 18.783 30.6166 20.0008 30.6166Z" fill="#353131"/>
</svg>
